<mxfile host="Electron" agent="Mozilla/5.0 (Windows NT 10.0; Win64; x64) AppleWebKit/537.36 (KHTML, like Gecko) draw.io/26.0.4 Chrome/128.0.6613.186 Electron/32.2.5 Safari/537.36" version="26.0.4">
  <diagram name="Page-1" id="9f46799a-70d6-7492-0946-bef42562c5a5">
    <mxGraphModel dx="781" dy="498" grid="1" gridSize="10" guides="1" tooltips="1" connect="1" arrows="1" fold="1" page="1" pageScale="1" pageWidth="210" pageHeight="180" background="none" math="0" shadow="0">
      <root>
        <mxCell id="0" />
        <mxCell id="1" parent="0" />
        <mxCell id="78961159f06e98e8-43" value="IntArray" style="swimlane;html=1;fontStyle=1;align=center;verticalAlign=top;childLayout=stackLayout;horizontal=1;startSize=26;horizontalStack=0;resizeParent=1;resizeLast=0;collapsible=1;marginBottom=0;swimlaneFillColor=#ffffff;rounded=0;shadow=0;comic=0;labelBackgroundColor=default;strokeWidth=1;fillColor=none;fontFamily=Verdana;fontSize=12" parent="1" vertex="1">
          <mxGeometry x="200" y="90" width="140" height="210" as="geometry" />
        </mxCell>
        <mxCell id="78961159f06e98e8-44" value="size = 6" style="text;html=1;align=left;verticalAlign=top;spacingLeft=4;spacingRight=4;whiteSpace=wrap;overflow=hidden;rotatable=0;points=[[0,0.5],[1,0.5]];portConstraint=eastwest;fontColor=#000000;fontStyle=1" parent="78961159f06e98e8-43" vertex="1">
          <mxGeometry y="26" width="140" height="26" as="geometry" />
        </mxCell>
        <mxCell id="78961159f06e98e8-45" value="200" style="text;html=1;strokeColor=#999999;fillColor=none;align=left;verticalAlign=top;spacingLeft=4;spacingRight=4;whiteSpace=wrap;overflow=hidden;rotatable=0;points=[[0,0.5],[1,0.5]];portConstraint=eastwest;fontColor=#000000;fontStyle=1" parent="78961159f06e98e8-43" vertex="1">
          <mxGeometry y="52" width="140" height="26" as="geometry" />
        </mxCell>
        <mxCell id="78961159f06e98e8-50" value="300" style="text;html=1;strokeColor=none;fillColor=none;align=left;verticalAlign=top;spacingLeft=4;spacingRight=4;whiteSpace=wrap;overflow=hidden;rotatable=0;points=[[0,0.5],[1,0.5]];portConstraint=eastwest;fontColor=#000000;fontStyle=1" parent="78961159f06e98e8-43" vertex="1">
          <mxGeometry y="78" width="140" height="26" as="geometry" />
        </mxCell>
        <mxCell id="SPDqKc0ofXSfoZqgsJQ1-17" value="400" style="text;html=1;strokeColor=#999999;fillColor=none;align=left;verticalAlign=top;spacingLeft=4;spacingRight=4;whiteSpace=wrap;overflow=hidden;rotatable=0;points=[[0,0.5],[1,0.5]];portConstraint=eastwest;fontColor=#000000;fontStyle=1" parent="78961159f06e98e8-43" vertex="1">
          <mxGeometry y="104" width="140" height="26" as="geometry" />
        </mxCell>
        <mxCell id="SPDqKc0ofXSfoZqgsJQ1-18" value="500" style="text;html=1;strokeColor=none;fillColor=none;align=left;verticalAlign=top;spacingLeft=4;spacingRight=4;whiteSpace=wrap;overflow=hidden;rotatable=0;points=[[0,0.5],[1,0.5]];portConstraint=eastwest;fontColor=#000000;fontStyle=1" parent="78961159f06e98e8-43" vertex="1">
          <mxGeometry y="130" width="140" height="26" as="geometry" />
        </mxCell>
        <mxCell id="SPDqKc0ofXSfoZqgsJQ1-19" value="600" style="text;html=1;strokeColor=#999999;fillColor=none;align=left;verticalAlign=top;spacingLeft=4;spacingRight=4;whiteSpace=wrap;overflow=hidden;rotatable=0;points=[[0,0.5],[1,0.5]];portConstraint=eastwest;fontColor=#000000;fontStyle=1" parent="78961159f06e98e8-43" vertex="1">
          <mxGeometry y="156" width="140" height="26" as="geometry" />
        </mxCell>
        <mxCell id="SPDqKc0ofXSfoZqgsJQ1-20" value="700" style="text;html=1;strokeColor=none;fillColor=none;align=left;verticalAlign=top;spacingLeft=4;spacingRight=4;whiteSpace=wrap;overflow=hidden;rotatable=0;points=[[0,0.5],[1,0.5]];portConstraint=eastwest;fontColor=#000000;fontStyle=1;perimeterSpacing=1;" parent="78961159f06e98e8-43" vertex="1">
          <mxGeometry y="182" width="140" height="26" as="geometry" />
        </mxCell>
        <mxCell id="SPDqKc0ofXSfoZqgsJQ1-13" value="&lt;font style=&quot;font-size: 15px;&quot;&gt;&lt;span style=&quot;background-color: initial; font-size: 15px;&quot;&gt;&amp;nbsp;&lt;font color=&quot;#ffffff&quot;&gt;immutableArrayOf(&lt;/font&gt;&lt;font style=&quot;font-size: 15px;&quot; color=&quot;#66b2ff&quot;&gt;200&lt;/font&gt;&lt;font style=&quot;font-size: 15px;&quot; color=&quot;#ff8000&quot;&gt;,&lt;/font&gt;&lt;font style=&quot;font-size: 15px;&quot; color=&quot;#66b2ff&quot;&gt; 300&lt;/font&gt;&lt;font style=&quot;font-size: 15px;&quot; color=&quot;#ff8000&quot;&gt;,&lt;/font&gt;&lt;font style=&quot;font-size: 15px;&quot; color=&quot;#66b2ff&quot;&gt; 400, 500, 600, 700, 800&lt;/font&gt;&lt;font color=&quot;#ffffff&quot;&gt;)&lt;/font&gt;&lt;/span&gt;&lt;span style=&quot;background-color: initial; font-size: 15px;&quot;&gt;&lt;font color=&quot;#ffffff&quot;&gt;.&lt;/font&gt;&lt;font style=&quot;font-size: 15px;&quot; color=&quot;#f8d80d&quot;&gt;filter&lt;/font&gt; &lt;font color=&quot;#ffffff&quot;&gt;{ it &amp;lt;=&lt;/font&gt;&amp;nbsp;&lt;font color=&quot;#66b2ff&quot;&gt;700&lt;/font&gt;&amp;nbsp;&lt;font color=&quot;#ffffff&quot;&gt;}&lt;/font&gt;&lt;/span&gt;&lt;/font&gt;" style="text;html=1;align=left;verticalAlign=middle;whiteSpace=wrap;rounded=0;fontSize=15;" parent="1" vertex="1">
          <mxGeometry x="105" y="20" width="505" height="30" as="geometry" />
        </mxCell>
        <mxCell id="okIOshEDeDqbi9jVXR67-1" value="&lt;font style=&quot;font-size: 15px;&quot;&gt;&lt;font color=&quot;#ff8000&quot; style=&quot;font-size: 15px;&quot;&gt;val&lt;/font&gt;&amp;nbsp;&lt;font color=&quot;#999999&quot; style=&quot;font-size: 15px;&quot;&gt;values&lt;/font&gt;&lt;font color=&quot;#ffffff&quot;&gt;&lt;font style=&quot;font-size: 15px;&quot;&gt;&amp;nbsp;&lt;/font&gt;&lt;span style=&quot;background-color: initial; font-size: 15px;&quot;&gt;=&lt;/span&gt;&lt;/font&gt;&lt;/font&gt;" style="text;html=1;align=center;verticalAlign=middle;whiteSpace=wrap;rounded=0;fontSize=15;" parent="1" vertex="1">
          <mxGeometry x="20" y="20" width="90" height="30" as="geometry" />
        </mxCell>
        <mxCell id="okIOshEDeDqbi9jVXR67-2" style="edgeStyle=orthogonalEdgeStyle;rounded=0;orthogonalLoop=1;jettySize=auto;html=1;exitX=0.25;exitY=1;exitDx=0;exitDy=0;entryX=-0.007;entryY=0.073;entryDx=0;entryDy=0;entryPerimeter=0;curved=1;" parent="1" source="okIOshEDeDqbi9jVXR67-1" target="78961159f06e98e8-43" edge="1">
          <mxGeometry relative="1" as="geometry" />
        </mxCell>
      </root>
    </mxGraphModel>
  </diagram>
</mxfile>
